<svg t="1663428146226" class="icon" viewBox="0 0 1024 1024" version="1.1" xmlns="http://www.w3.org/2000/svg" p-id="810" width="200" height="200"><path d="M966.8 905.1L758 697.5c61.9-76.4 93.3-172.1 88.8-271-4.9-107.4-51.7-203.7-131.1-276.1C636.1 77.8 535.3 44 428 48.9c-107.4 4.9-206.5 51.3-279 130.7-72.5 79.5-106 182.6-101.1 290C52.8 577 92.2 665.8 171.6 738.3c79.5 72.5 184 113.5 291.3 108.6 87.5-4 168.7-34.9 235.7-89.7l208.6 207.3c8.4 8.3 19.8 12.7 31.6 12.2 10.6-0.5 20.5-4.9 27.9-12.3 7.9-8 12.3-18.5 12.3-29.8 0-11.1-4.3-21.6-12.2-29.5zM460.6 759.4C288 767.2 141.3 633.2 133.5 460.7c-7.8-172.5 126.2-319.3 298.7-327.1 172.5-7.9 319.3 126.2 327.1 298.7 7.8 172.5-126.2 319.2-298.7 327.1z" p-id="811"></path></svg>