<svg t="1665926211608" class="icon" viewBox="0 0 1024 1024" version="1.1" xmlns="http://www.w3.org/2000/svg" p-id="6611" width="200" height="200"><path d="M405.808 1024a521.424 521.424 0 0 1-177.408-72.416 136.528 136.528 0 0 0-154.48-152.848A519.232 519.232 0 0 1 0 623.088l2.816-2.112a136.528 136.528 0 0 0 0-217.952L0 400.912a519.232 519.232 0 0 1 73.92-175.648 136.528 136.528 0 0 0 154.48-152.848A521.424 521.424 0 0 1 405.808 0a136.544 136.544 0 0 0 212.384 0 521.424 521.424 0 0 1 177.408 72.416 136.528 136.528 0 0 0 154.48 152.848c34.704 52.688 60.112 112 73.92 175.648l-2.816 2.112a136.528 136.528 0 0 0 0 217.952l2.816 2.112a519.232 519.232 0 0 1-73.92 175.648 136.528 136.528 0 0 0-154.48 152.848A521.424 521.424 0 0 1 618.192 1024a136.544 136.544 0 0 0-212.384 0zM512 765.44c144.656 0 261.92-117.024 261.92-261.376 0-144.352-117.264-261.376-261.92-261.376s-261.92 117.024-261.92 261.376c0 144.352 117.264 261.376 261.92 261.376z" p-id="6612"></path></svg>